<svg xmlns="http://www.w3.org/2000/svg" style="display:none; position:absolute; width:0; height:0;">


    <symbol id="symbol-target-12" viewBox="0 0 64 56">
        <path fill="#9B9B9B" fill-rule="nonzero" stroke="#FFF" stroke-width="1.5" d="M12.1028834 27.578125l-4.46206929 4.5c-.27887933.28125-.6274785.421875-.90635783.421875s-.69719833-.140625-.90635783-.421875l-4.46206933-4.5c-.48803883-.4921875-.48803883-1.3359375 0-1.8984375.48803884-.4921875 1.32467683-.4921875 1.8824355 0l2.16131483 2.1796875C5.40977945 13.0234375 17.4015908 1 32.1124756 1c.6971983 0 1.3246768.5625 1.3246768 1.3359375 0 .140625 0 .28125-.0697198.3515625-.1394397.5625-.6274785.984375-1.254957.984375-13.2467683 0-24.05334249 10.8984375-24.05334249 24.2578125l2.23103466-2.25c.48803883-.4921875 1.32467683-.4921875 1.88243553 0 .4880388.5625.4880388 1.40625-.0697199 1.8984375zm50.5468791.84375l-4.4620693-4.5c-.4880389-.4921875-1.3246769-.4921875-1.8824355 0l-4.4620693 4.5c-.4880389.4921875-.4880389 1.3359375 0 1.8984375.2788793.28125.6274784.421875.9063578.421875.2788793 0 .6971983-.140625.9063578-.421875l2.2310347-2.25c0 13.359375-10.8065742 24.2578125-24.0533425 24.2578125-.6971983 0-1.3246768.5625-1.3246768 1.3359375S31.0666781 55 31.8335962 55c14.7108848 0 26.7026961-12.0234375 26.7026961-26.859375l2.1613149 2.1796875c.2788793.28125.6274785.421875.9063578.421875.2788793 0 .6971983-.140625.9063578-.421875.6274785-.5625.6274785-1.40625.1394397-1.8984375zm-27.7484936-1.40625c-.836638-.4921875-1.673276-.7734375-2.5796338-1.1953125-.4880389-.2109375-.9760777-.421875-1.3943967-.7734375-.836638-.703125-.6971983-1.7578125.2788793-2.1796875.2788794-.140625.5577587-.140625.836638-.2109375 1.1155174-.0703125 2.2310347.140625 3.2071124.6328125.4880388.28125.6971983.140625.836638-.3515625.2091595-.5625.3485991-1.125.4880388-1.6875.1394396-.3515625 0-.6328125-.418319-.7734375-.6274785-.28125-1.3246768-.4921875-2.0218752-.6328125-.9063578-.140625-.9063578-.140625-.9063578-1.0546875 0-1.3359375 0-1.3359375-1.3246768-1.3359375h-.5577587c-.6274785 0-.6971983.140625-.7669182.7734375v.84375c0 .84375 0 .84375-.7669181 1.125-1.8824355.703125-3.0676727 2.0390625-3.2071124 4.078125-.1394396 1.828125.836638 3.09375 2.3704744 4.0078125.9063578.5625 1.9521553.9140625 2.928233 1.3359375.418319.140625.7669181.3515625 1.0457975.6328125.9760776.7734375.7669181 2.109375-.3485992 2.6015625-.6274785.28125-1.254957.3515625-1.8824355.28125-.9760777-.140625-1.9521553-.421875-2.8585132-.84375-.5577586-.28125-.6971983-.2109375-.836638.3515625-.1394396.4921875-.2788793.984375-.418319 1.546875-.2091595.703125-.1394396.84375.5577587 1.125.836638.421875 1.673276.6328125 2.5796338.7734375.6971984.140625.6971984.140625.6971984.84375v.984375c0 .421875.2091595.6328125.6274785.703125h1.4641165c.418319 0 .6274785-.2109375.6274785-.6328125v-1.3359375c0-.4921875.2091595-.703125.6274785-.84375 1.0457975-.28125 1.8824355-.84375 2.5796338-1.6171875 1.8824355-2.390625 1.1155173-5.6953125-1.4641165-7.171875z"/>
    </symbol>

    <symbol id="symbol-target-11" viewBox="0 0 54 54">
        <g fill="#9B9B9B" fill-rule="nonzero">
            <path d="M32.2760277 5.4442688l9.5532922 16.5651837-6.8317148-1.3610672c-.4439619-.0748575-.8672985.2152164-.9558939.6549869-.0885953.4397704.1896128.8700869.6281938.9716544l8.6312884 1.7206988a.81403866.81403866 0 0 0 .1666271 0c.085103-.0018617.1694082-.0167914.2499408-.0442623l.0722051-.027664.0888679-.0387296.0888678-.0663935h.0277712c.0625104-.0525397.1167993-.1140782.161073-.1825822v-.0387295c.0435486-.0740043.075396-.1542483.094422-.2379101l1.7273686-8.5979611c.068767-.2946556-.0288627-.603244-.2548025-.8053803-.2259397-.2021362-.544395-.2657972-.8311319-.1661477-.2867369.0996495-.4963293.3468224-.5470121.6450931l-1.2663666 6.4180405L33.72013 4.61434978C31.9872072 1.65983805 29.6266554 0 27.0661509 0c-2.5605045 0-4.9155021 1.65983805-6.6206537 4.57008743l-5.2876361 7.82890277c-.1784049.2459336-.2078557.5692483-.076803.8431532.1310528.2739048.4017164.4547333.7058474.4715717.3041311.0168385.5932444-.1329975.7539613-.3907484l5.3154073-7.8731651c1.4218854-2.44549473 3.2770014-3.78996355 5.2098768-3.78996355s3.7935457 1.34446882 5.2098768 3.78443075zM16.1500035 48.3342127H8.32108797c-2.70097585 0-4.85392761-1.0549987-5.92201536-2.8873647-1.1184165-1.9489712-.94506194-4.5142837.52006367-7.0407278l9.61838192-16.691189 2.8295937 7.0240699c.1108812.2767348.3620249.4737112.6588279.5167303.296803.043019.5941737-.074455.7800955-.3081707.1859219-.2337157.2321488-.5481662.1212676-.8249009l-3.4726832-8.6287784c-.0331509-.0786607-.0784295-.1517192-.13421-.2165523l-.0279604-.0333158c-.0556101-.0589824-.1196762-.1094995-.1901308-.1499208-.0788639-.0409277-.1638215-.069047-.2516437-.0832894-.0888853-.0144041-.1795346-.0144041-.26842 0l-8.76279324 1.7046557c-.44156917.1019316-.72167276.5337905-.6324738.9751371.08919897.4413467.51541989.7324604.96240667.6573345l6.87826147-1.3659456L1.476379 37.5787792c-1.76709807 3.0539434-1.95722888 6.2244919-.52006367 8.7009624C2.32637554 48.639607 5.03294346 49.9666843 8.33227213 50h7.82891547C16.6244509 50 17 49.6271008 17 49.1671063c0-.4599944-.3755491-.8328936-.8388124-.8328936h-.0111841zM52.5570533 37.07137l-3.4814764-7.6075661c-.1933162-.3975405-.6794621-.5725175-1.0940916-.3937931-.4146296.1787245-.6055833.6455627-.4297495 1.0506388l3.4981608 7.645254.0389302.0753758c1.4459806 2.4389437 1.6406319 4.9048073.5283391 6.7676649-1.0344323 1.760562-3.2034032 2.7781346-5.9007131 2.7781346l-17.8856677.0269199 3.7873569-3.6664915c.3062796-.3182039.2972423-.8140685-.020442-1.1216146-.3176842-.307546-.829895-.316295-1.1585884-.0197896l-5.1832843 5.017871c-.1605788.1495275-.2526979.3550278-.2558273.570702v.0323039c.0016844.2756246.148457.5313842.3893025.6783817l5.0386862 4.8778874c.3286934.2965054.8409041.2877565 1.1585884-.0197896.3176842-.307546.3267216-.8034107.0204419-1.1216145l-3.7317422-3.6126517h17.830053c3.309071 0 5.9841351-1.3136915 7.3411323-3.5911158 1.4292962-2.3904879 1.2402064-5.4270535-.4894088-8.3667075z"/>
        </g>
    </symbol>

    <symbol id="symbol-target-10" viewBox="0 0 57 51">
        <path fill="#9B9B9B" fill-rule="evenodd" d="M9.2882305.0000903l7.7942559.0411306c.3119031.0073706.5985763.2662698.6375182.5758222l5.3881251 42.1382851c0 .3170678-.2608136.61334-.5753057.653286-.3144913.0401435-.6412258-.1817645-.7203204-.4886977l-5.3264259-41.562522-6.6425955-.0411306-8.2672408 47.6293229h54.1073471V38.8685823l-5.8817006-11.1669991-2.8380056 11.619436c-.135712.5040312-.9634597.6022841-1.2133602.1439902l-6.1284534-11.6194361-3.578357 11.6605667c-.0779297.266-.3398153.4667833-.6169752.4729693h-6.3341198c-.3476736.0065809-.6674587-.3103553-.6674587-.6580901s.3197851-.6629599.6674587-.6580901h5.840568l3.8868327-12.729963c.1556489-.4944231.9767505-.5639833 1.2133602-.1028595l6.0667536 11.49611 2.8380286-11.6400343c.0705144-.2735681.3346158-.484815.6169522-.4935676.2425549-.0065809.4827322.1352375.596385.3495775l6.7042947 12.7505613c.1336581.2349381.1463461.3732029.1439638.5552964v10.755627c0 .344576-.3135338.6580901-.6580835.6580901H.7947568c-.3747928-.007239-.6961165-.3906423-.6375182-.7608838L8.6301457.5347753c.0575697-.3016685.3510082-.5400945.6580848-.534685z"/>
    </symbol>

    <symbol id="symbol-target-9" viewBox="0 0 44 52">
        <path fill="#9B9B9B" fill-rule="nonzero" d="M.46366447.00248898C.26194106.03906396.09589855.1824226.02997447.37693053-.03594961.57143844.00862338.78647359.14639563.93858547 3.19697644 4.390152 4.11317553 8.00656758 4.04175197 11.9068105c-.07142356 3.9002428-1.16895322 8.068612-2.15037771 12.398863C.90994977 28.6359358.0421363 33.1392028.48129052 37.7642684c.43915422 4.6250655 2.21013762 9.355963 6.43350707 14.0414474.1065396.1227406.26068668.1935363.42302512.1942842H42.0963869c.2245387-.0017187.4266768-.1367208.5146676-.3437316.0879907-.2070107.045075-.4466017-.1092685-.6100271-3.269912-3.6277081-4.9617242-7.2032887-5.7284652-10.7562786l3.5957136 3.2321822c.1664245.1449816.401901.1794892.6027883.0883348.2008872-.0911544.3303441-.2912537.3313921-.5122275V32.7835285C42.9534911 31.3651636 44 29.2674693 44 26.9196788c0-3.3624654-2.157969-6.2161934-5.1468057-7.2768256.7238564-3.361712 1.2747011-6.6586532 1.0046847-9.87316871-.2795164-3.32760897-1.4428975-6.57644172-4.1068689-9.59057353-.1097142-.11620383-.263428-.18038263-.4230251-.17662198H.56942076a.5629404.5629404 0 0 0-.10575629 0zM1.6798617 1.13286965h33.3661065c2.3894467 2.77980955 3.4266468 5.66322979 3.6838438 8.72512583.2521478 3.00178292-.2463332 6.17103632-.9518065 9.46693812-.4780635-.093812-.9581841-.1412976-1.4629619-.1412976-4.2383349 0-7.6849564 3.4736599-7.6849564 7.7360428 0 2.3425076 1.037904 4.4279277 2.6791591 5.8461875v10.3323859c.0010481.2209738.130505.4210731.3313922.5122275.2008873.0911544.4363638.0566468.6027883-.0883348l3.4194531-3.0555602c.744941 3.4490554 2.3813291 6.9318973 5.270188 10.4030346H7.60221342c-3.959505-4.4611038-5.57921461-8.85495-5.99285591-13.2113241-.41919477-4.4148713.41673841-8.8002962 1.3924577-13.1053509.97571929-4.3050775 2.09302734-8.5165537 2.16800375-12.6108094.06861355-3.7467994-.86423299-7.40580773-3.48995726-10.80926525zM36.3150436 20.3316789c3.6297784 0 6.5568894 2.937622 6.5568894 6.5879999 0 3.6503383-2.927111 6.6056621-6.5568894 6.6056621-3.6297783 0-6.5568894-2.9553238-6.5568894-6.6056621 0-3.6503779 2.9271111-6.5879999 6.5568894-6.5879999zm-3.8777303 13.2643107c1.1378705.6703644 2.4660436 1.0420697 3.8777303 1.0420697 1.4116867 0 2.7208175-.3717053 3.8601043-1.0420697v8.2305843l-3.4899573-3.126209c-.2150102-.1954055-.5429098-.1954055-.75792 0l-3.4899573 3.126209v-8.2305843z"/>
    </symbol>

    <symbol id="symbol-target-8" viewBox="0 0 39 53">
        <path fill="#9B9B9B" fill-rule="nonzero" d="M9.93975106 40.5022514v6.2329378c0 3.2038479 2.59723184 5.8010797 5.80107964 5.8010797h6.7679263c3.2038478 0 5.8010796-2.5972318 5.8010796-5.8010797v-6.3747419c.0042945-2.4345801 1.0592157-4.7488283 2.8940942-6.3489594 4.3493995-3.5474816 6.9295949-8.8198554 7.0622184-14.4309437.1326235-5.6110884-2.1955946-10.99947718-6.3725345-14.748487C26.5337805.07428598 18.967033-1.29497357 12.2797794 1.282787 5.59252582 3.86054757.90262136 9.95442442.12303516 17.0787809c-.72989077 6.3424442 1.8209272 12.6198858 6.76792626 16.6555443 1.90564272 1.5581474 3.02226175 3.8810927 3.04878964 6.3425137v.4254125zm17.08095674 6.2329378c0 2.4918817-2.0200692 4.5119509-4.5119508 4.5119509h-6.7679263c-2.4918816 0-4.5119508-2.0200692-4.5119508-4.5119509v-5.5883734h15.7918279v5.5883734zM7.71600386 32.7223591C3.12110197 28.9727304.7444879 23.1465059 1.40571833 17.2528133 2.27421112 9.23156709 8.41765299 2.79137539 16.3890434 1.54574095 24.3604339.30010652 32.1757573 4.55905783 35.4499436 11.932956c3.2741863 7.3738982 1.1923165 16.0274389-5.0775009 21.1052396-1.9903139 1.7280957-3.1969311 4.1878277-3.3452892 6.8194914h-7.244904V23.3761752h4.7053202c.3559831 0 .6445644-.2885813.6445644-.6445644 0-.3559831-.2885813-.6445644-.6445644-.6445644H13.7749093c-.3559831 0-.6445644.2885813-.6445644.6445644 0 .3559831.2885813.6445644.6445644.6445644h4.7182114V39.857687h-7.2706865c-.0841086-2.7730671-1.36249806-5.3744957-3.50643034-7.1353279z"/>
    </symbol>

    <symbol id="symbol-target-7" viewBox="0 0 64 64">
        <g fill="#9B9B9B" fill-rule="nonzero" stroke="#FFF">
            <path stroke-width="2.5" d="M32 2C15.4533333 2 2 15.4533333 2 32s13.4533333 30 30 30 30-13.4533333 30-30S48.5466667 2 32 2zm0 55.96C17.6933333 57.96 6.04 46.32 6.04 32S17.6933333 6.04 32 6.04c14.3066667 0 25.96 11.6533333 25.96 25.96 0 14.3066667-11.6533333 25.96-25.96 25.96z"/>
            <path stroke-width="2.4" d="M33.8854797 21.9275256c2.8778595 0 5.5792984 1.0933382 7.6191604 3.0783309.7938923.7748902 2.0839672.7748902 2.8888857.0212299.8049185-.7642753.8049185-2.0062226.0220526-2.7811128C41.6038766 19.5073206 37.8659673 18 33.8854797 18 25.6819265 18 19 24.5069546 19 32.5S25.6819265 47 33.8854797 47c3.6938043 0 7.2332406-1.3268668 9.9677583-3.7364568.8269711-.7324305.8931288-1.9743778.1323154-2.7704978-.7608134-.7961201-2.0508883-.8598097-2.8778594-.1273792-1.9847306 1.7408492-4.5428279 2.7068082-7.211188 2.7068082-5.9541919 0-10.8057556-4.7448756-10.8057556-10.5724744 0-5.8275988 4.8405374-10.5724744 10.7947293-10.5724744z"/>
        </g>
    </symbol>

    <symbol id="symbol-target-6" viewBox="0 0 39 51">
        <g fill="#A1A1A1" fill-rule="nonzero" stroke="#FFF" stroke-width="1.5" transform="translate(1.5 1)">
            <path d="M18 0C8.0588745 0 0 8.35735134 0 18.6666667 0 28 12.375 49 18 49s18-21 18-30.3333333C36 8.35735134 27.9411255 0 18 0zm0 45.4416667C14.9625 44.905 3.375 27.3933333 3.375 18.6083333c.52224997-7.9582222 6.8994998-14.13688915 14.59125-14.13688915s14.069 6.17866695 14.59125 14.13688915c.0675 8.785-11.5425 26.285-14.49 26.8216667L18 45.4416667z"/>
            <ellipse cx="18.5" cy="17.6050693" rx="4.5" ry="4.60506934"/>
        </g>
    </symbol>

    <symbol id="symbol-target-5" viewBox="0 0 44 55">
        <g fill="#9B9B9B" fill-rule="evenodd">
            <g fill-rule="nonzero" stroke="#FFF" stroke-width="2.5">
                <path d="M35.8934845 26.5789143H7.490798V11.23344949c0-5.28811603 4.5508491-9.59091549 10.1438166-9.59091549h8.1150533c5.5929676 0 10.1438166 4.30279946 10.1438166 9.59091549V26.5789143zm-24.3451599-3.8363662h20.2876333V11.23344949c0-3.17324435-2.7301131-5.75454929-6.08629-5.75454929h-8.1150533c-3.3561769 0-6.08629 2.58130494-6.08629 5.75454929V22.7425481z"/>
                <path d="M38.0085378 53.3334636H5.54832465c-2.23679089 0-4.05752665-1.7205579-4.05752665-3.8363662V26.4789002c0-2.1158083 1.82073576-3.8363662 4.05752665-3.8363662H38.0085378c2.2367909 0 4.0575267 1.7205579 4.0575267 3.8363662v23.0181972c0 2.1158085-1.8207358 3.8363662-4.0575267 3.8363662zM5.54832465 26.4789002v23.0181972H38.0085378V26.4789002H5.54832465z"/>
            </g>
            <path d="M22.490798 30.642534c-1.6565245 0-3 1.3434755-3 2.9993572 0 .9937861.4885365 1.8673666 1.2322691 2.4137561v4.6282409c0 .9770731.7913006 1.7677309 1.7677309 1.7677309.9764303 0 1.7677309-.7906578 1.7677309-1.7677309v-4.6282409c.7437326-.5463895 1.2322691-1.41997 1.2322691-2.4137561 0-1.6558817-1.3434755-2.9993572-3-2.9993572z"/>
        </g>
    </symbol>

    <symbol id="symbol-target-4" viewBox="0 0 56 39">
        <path fill="#A3A3A3" fill-rule="nonzero" d="M27.9947709 0C14.4197425 0 0 3.14474968 0 8.97817863c0 5.83340297 14.4250165 8.97824227 27.9947709 8.97824227C41.5751371 17.9564209 56 14.8116335 56 8.97817863 56 3.1447951 41.5698632 0 27.9947709 0zm0 1.78511992c15.4628313 0 26.2445256 3.79516082 26.2445256 7.19305871 0 1.74196727-2.8481983 3.59030607-7.7055516 4.97743627.180159-.4088399.2795703-.835149.2795703-1.270621 0-4.52155536-9.697835-6.95154454-18.8185827-6.95154454-9.1207478 0-18.80823967 2.43533119-18.80823967 6.95154454 0 .4353422.08915781.8619628.26930395 1.270621-4.85728922-1.3871302-7.69518289-3.235469-7.69518289-4.97743627 0-3.39789789 10.77127451-7.19305871 26.23411861-7.19305871h.0000384zm0 5.73345065c9.7571156 0 17.0579304 2.73600583 17.0579304 5.17688413 0 .7419624-.7264858 1.4126591-1.3257056 1.8481441-.0634665.0425829-.1078086.0932255-.1554149.1466975-4.242158.8978358-9.5581907 1.4806672-15.5768483 1.4806672-6.0186065 0-11.3242321-.5828314-15.5664541-1.4806672-.0476063-.0539392-.0970687-.1145234-.1554149-.1575736-.5992198-.4353292-1.32568-1.1010811-1.32568-1.8376574 0-2.4409172 7.2904334-5.17692432 17.0474978-5.17692432l.0000896.00042959zM6.07951284 18.1768759c-.48785258 0-.88040296.3979508-.88040296.8925794 0 4.5645718 11.46368442 6.9515497 22.79566102 6.9515497 11.3320278 0 22.8060168-2.3923251 22.8060168-6.9515497 0-.4946286-.3976323-.8925794-.8906564-.8925794-.4878654 0-.8803646.3979508-.8803646.8925794 0 2.1559714-8.0007772 5.1664298-21.0349958 5.1664298-13.0341675 0-21.03489351-3.0104584-21.03489351-5.1664298 0-.4946286-.39251197-.8925794-.88036455-.8925794zm5.57201096 8.8101547c-.4931649 0-.8803005.3979637-.8803005.8926443 0 3.7688259 8.66491 5.743901 17.2235476 5.743901 8.5586887 0 17.2339674-1.9750751 17.2339674-5.743901 0-.4892944-.4083722-.8926443-.8906692-.8926443-.4878526 0-.8803133.3979637-.8803133.8926443 0 1.6128675-6.0240725 3.9482165-15.4629849 3.9482165-9.4388997 0-15.4628825-2.3406962-15.4628825-3.9482165 0-.4946806-.3924992-.8926443-.8803646-.8926443zm7.1670205 7.266606c-.4878654 0-.8803134.3979508-.8803134.8925275C17.9382309 37.7913779 23.1480807 39 27.9947709 39c4.8467541 0 10.067011-1.2086221 10.067011-3.8538359 0-.4946286-.392512-.8925275-.8803006-.8925275-.4878654 0-.8804285.3979508-.8804285.8925275 0 .5967964-2.9186542 2.068716-8.3062819 2.068716-5.3875638 0-8.2958749-1.4665205-8.2958749-2.068716 0-.4946286-.3924991-.8925275-.8803517-.8925275z"/>
    </symbol>

    <symbol id="symbol-target-3" viewBox="0 0 46 55">
        <path fill="#9B9B9B" fill-rule="nonzero" stroke="#FFF" stroke-width="2.5" d="M23.0219145 53.2272865c-.222972 0-.445944-.0550238-.6689159-.1100475-4.4594393-1.7607595-12.65365888-6.1626584-17.44755607-15.7367885C1.95106403 31.4929108 2.118293 25.825466 2.28552197 17.2417631c.055743-2.3660206.11148598-5.0071599.11148598-7.92341793 0-.7703323.50168692-1.48564087 1.28208879-1.70573582L22.4644846 1.7250696c.3344579-.11004747.7246588-.11004747 1.0591168 0l18.7853878 5.83251602c.7804019.22009494 1.2820888.93540351 1.2820888 1.70573581 0 2.91625797.055743 5.61242107.111486 7.92341797.2229719 8.5837028.3344579 14.3061714-2.6199206 20.1386874-4.7938972 9.57413-12.9881168 13.9760289-17.447556 15.7367885-.167229.1100474-.390201.1650712-.6131729.1650712zM6.02030234 10.5838911c0 2.4210444-.05574299 4.6770176-.11148598 6.7128958-.16722897 8.0884892-.33445794 13.4257916 2.22971962 18.4879753 4.01349532 8.0334654 10.75839722 11.9951744 14.88337852 13.755934 4.0692383-1.7607596 10.8698831-5.6674448 14.8833784-13.755934 2.5641776-5.1172075 2.3969486-10.3994861 2.2297197-18.4879753-.055743-2.0358782-.111486-4.2368277-.111486-6.7128958L23.0219145 5.30161244 6.02030234 10.5838911z"/>
    </symbol>

    <symbol id="symbol-target-2" viewBox="0 0 52 53">
        <g fill="none" fill-rule="evenodd">
            <path fill="#9B9B9B" d="M9.9520624 9.28697501c1.609861 1.32821105 3.2781107 2.42342709 5.1187462 3.28983369-1.2664796 3.7516381-2.0130213 8.1952853-2.07141 13.0435347H2.47691346c.22938433-6.406665 3.04733615-12.1771282 7.47514894-16.33336839zm5.6929022 1.6742156c-1.5514723-.75060666-3.0473362-1.73281315-4.4278128-2.82802919 2.645566-2.13602007 5.7499007-3.75163813 9.1433986-4.55944716-1.8392453 1.73141797-3.4504965 4.27064497-4.7155858 7.38747635zm25.2447888-2.82802919c-1.3790864 1.09521604-2.8735601 2.07742253-4.4264226 2.82802919-1.2650893-3.11683138-2.8763405-5.71465592-4.716976-7.38747635 3.3948881.8650114 6.4992228 2.42342709 9.1433986 4.55944716zm8.7416285 17.54438438H39.1075066c-.0569985-4.8482494-.8049305-9.2918966-2.0700198-13.0435348 1.8406355-.8650114 3.5658838-2.01882494 5.1187462-3.28843844 4.4278128 4.09764264 7.2457646 9.86810584 7.4751489 16.33197324zM42.156233 43.7995345c-1.6112512-1.3268159-3.2781107-2.4234271-5.1187462-3.2898337 1.2650893-3.7516381 2.0130213-8.1952854 2.0700198-13.0435347h10.5238753c-.2293843 6.406665-3.0473361 12.1785233-7.4751489 16.3333684zm-5.6929022-1.6742156c1.5528625.7506066 3.0473362 1.731418 4.4264226 2.8280292-2.6441758 2.13602-5.7485105 3.7516381-9.1433986 4.5594471 1.8406355-1.7314179 3.4518867-4.2706449 4.716976-7.3874763zm-25.246179 2.8280292c1.3804766-1.0966112 2.8763405-2.0774226 4.4278128-2.8280292 1.2650893 3.1168314 2.8763405 5.7146559 4.7155858 7.3874763-3.3934979-.8650114-6.4978326-2.4234271-9.1433986-4.5594471zm13.9743718-17.5443844v10.5615101c-2.9333391.1157999-5.8082895.6920091-8.510854 1.7886204-1.2080908-3.5772407-1.8976341-7.7906833-2.0130213-12.3501305h10.5238753zm0-12.292928v10.5615101H14.7246468c.0583887-4.5022448.8063207-8.7728898 2.0130213-12.3501305 2.645566 1.0966113 5.5205164 1.6728205 8.4538555 1.7886204zm0-12.17712818V13.3846177c-2.7609533-.1157999-5.4051291-.6920091-7.9366981-1.6742156 1.9560228-4.90545172 4.7739747-8.25248775 7.9366981-8.77149458zm1.7252482 10.44571018V2.93890752c3.1627234.51900683 5.9806753 3.86604286 7.9366981 8.77149458-2.531569.9822065-5.1757448 1.5584157-7.9366981 1.6742156zm0 12.2929281V15.1160357c2.9333391-.1157999 5.8082895-.6920091 8.510854-1.7886204 1.2080908 3.5772407 1.8976341 7.7906833 2.0130213 12.3501305H26.9167718zm0 12.292928V27.4089637h10.4668768c-.0583887 4.5008496-.8049305 8.7728898-2.0130213 12.3501305-2.645566-1.0966113-5.5205164-1.6728205-8.4538555-1.7886204zm0 12.1771282V39.7018918c2.7609533.1157999 5.4051291.6920091 7.9366981 1.6742156-1.9560228 4.9054517-4.7739747 8.2524877-7.9366981 8.7714946zm-9.6619463-8.7714946c2.531569-.9822065 5.1757448-1.5584157 7.9366981-1.6742156V50.147602c-3.1627234-.5190069-5.9806753-3.8660429-7.9366981-8.7714946zm-4.2554269-13.9671437c.0583887 4.8482494.8049304 9.2918966 2.07141 13.0435348-1.8406355.8650114-3.5658838 2.0202201-5.1187462 3.2898336-4.42781279-4.0976427-7.24576461-9.869501-7.47514894-16.3333684H12.9993986zM9.26112898 45.4737501c0 .0572024 0 .0572024 0 0l.1723858.1730023c4.42920302 3.9246404 10.23749242 6.2894699 16.62132802 6.2894699 6.3824454 0 12.1907348-2.3648295 16.6199378-6.2894699.0569985-.0572024.1139971-.1157999.1723858-.1730023 5.2313531-4.6180447 8.510854-11.4279167 8.510854-18.9297978 0-7.5032762-3.2795009-14.3131482-8.510854-18.93119289-.0583887-.05720237-.1153873-.11440474-.1723858-.17300228C38.2455776 3.51511672 32.4372882 1.148892 26.0548428 1.148892c-6.3838356 0-12.192125 2.36622472-16.62132802 6.29086513-.05699853.05859754-.11399706.11579991-.1723858.17300228C4.0283857 12.2308041.750275 19.0406761.750275 26.5439523c0 7.5018811 3.2781107 14.3117531 8.51085398 18.9297978z"/>
            <path stroke="#FFF" stroke-width=".5" d="M9.9520624 9.28697501c1.609861 1.32821105 3.2781107 2.42342709 5.1187462 3.28983369-1.2664796 3.7516381-2.0130213 8.1952853-2.07141 13.0435347H2.47691346c.22938433-6.406665 3.04733615-12.1771282 7.47514894-16.33336839zm5.6929022 1.6742156c-1.5514723-.75060666-3.0473362-1.73281315-4.4278128-2.82802919 2.645566-2.13602007 5.7499007-3.75163813 9.1433986-4.55944716-1.8392453 1.73141797-3.4504965 4.27064497-4.7155858 7.38747635zm25.2447888-2.82802919c-1.3790864 1.09521604-2.8735601 2.07742253-4.4264226 2.82802919-1.2650893-3.11683138-2.8763405-5.71465592-4.716976-7.38747635 3.3948881.8650114 6.4992228 2.42342709 9.1433986 4.55944716zm8.7416285 17.54438438H39.1075066c-.0569985-4.8482494-.8049305-9.2918966-2.0700198-13.0435348 1.8406355-.8650114 3.5658838-2.01882494 5.1187462-3.28843844 4.4278128 4.09764264 7.2457646 9.86810584 7.4751489 16.33197324zM42.156233 43.7995345c-1.6112512-1.3268159-3.2781107-2.4234271-5.1187462-3.2898337 1.2650893-3.7516381 2.0130213-8.1952854 2.0700198-13.0435347h10.5238753c-.2293843 6.406665-3.0473361 12.1785233-7.4751489 16.3333684zm-5.6929022-1.6742156c1.5528625.7506066 3.0473362 1.731418 4.4264226 2.8280292-2.6441758 2.13602-5.7485105 3.7516381-9.1433986 4.5594471 1.8406355-1.7314179 3.4518867-4.2706449 4.716976-7.3874763zm-25.246179 2.8280292c1.3804766-1.0966112 2.8763405-2.0774226 4.4278128-2.8280292 1.2650893 3.1168314 2.8763405 5.7146559 4.7155858 7.3874763-3.3934979-.8650114-6.4978326-2.4234271-9.1433986-4.5594471zm13.9743718-17.5443844v10.5615101c-2.9333391.1157999-5.8082895.6920091-8.510854 1.7886204-1.2080908-3.5772407-1.8976341-7.7906833-2.0130213-12.3501305h10.5238753zm0-12.292928v10.5615101H14.7246468c.0583887-4.5022448.8063207-8.7728898 2.0130213-12.3501305 2.645566 1.0966113 5.5205164 1.6728205 8.4538555 1.7886204zm0-12.17712818V13.3846177c-2.7609533-.1157999-5.4051291-.6920091-7.9366981-1.6742156 1.9560228-4.90545172 4.7739747-8.25248775 7.9366981-8.77149458zm1.7252482 10.44571018V2.93890752c3.1627234.51900683 5.9806753 3.86604286 7.9366981 8.77149458-2.531569.9822065-5.1757448 1.5584157-7.9366981 1.6742156zm0 12.2929281V15.1160357c2.9333391-.1157999 5.8082895-.6920091 8.510854-1.7886204 1.2080908 3.5772407 1.8976341 7.7906833 2.0130213 12.3501305H26.9167718zm0 12.292928V27.4089637h10.4668768c-.0583887 4.5008496-.8049305 8.7728898-2.0130213 12.3501305-2.645566-1.0966113-5.5205164-1.6728205-8.4538555-1.7886204zm0 12.1771282V39.7018918c2.7609533.1157999 5.4051291.6920091 7.9366981 1.6742156-1.9560228 4.9054517-4.7739747 8.2524877-7.9366981 8.7714946zm-9.6619463-8.7714946c2.531569-.9822065 5.1757448-1.5584157 7.9366981-1.6742156V50.147602c-3.1627234-.5190069-5.9806753-3.8660429-7.9366981-8.7714946zm-4.2554269-13.9671437c.0583887 4.8482494.8049304 9.2918966 2.07141 13.0435348-1.8406355.8650114-3.5658838 2.0202201-5.1187462 3.2898336-4.42781279-4.0976427-7.24576461-9.869501-7.47514894-16.3333684H12.9993986zM9.26112898 45.4737501c0 .0572024 0 .0572024 0 0l.1723858.1730023c4.42920302 3.9246404 10.23749242 6.2894699 16.62132802 6.2894699 6.3824454 0 12.1907348-2.3648295 16.6199378-6.2894699.0569985-.0572024.1139971-.1157999.1723858-.1730023 5.2313531-4.6180447 8.510854-11.4279167 8.510854-18.9297978 0-7.5032762-3.2795009-14.3131482-8.510854-18.93119289-.0583887-.05720237-.1153873-.11440474-.1723858-.17300228C38.2455776 3.51511672 32.4372882 1.148892 26.0548428 1.148892c-6.3838356 0-12.192125 2.36622472-16.62132802 6.29086513-.05699853.05859754-.11399706.11579991-.1723858.17300228C4.0283857 12.2308041.750275 19.0406761.750275 26.5439523c0 7.5018811 3.2781107 14.3117531 8.51085398 18.9297978z"/>
        </g>
    </symbol>

    <symbol id="symbol-target-1" viewBox="0 0 41 38">
        <path fill="#9B9B9B" fill-rule="nonzero" stroke="#FFF" stroke-width="2.5" d="M32.5209313 3.6292881L4.05132903 31.5157236c-.89366465.875359-.89366465 2.250923 0 3.0012307.38299913.3751539 1.02133102.6252564 1.53199654.6252564.51066551 0 1.1489974-.2501025 1.53199653-.6252564L35.5849244 6.63051882c.8936646-.87535896.8936646-2.25092304 0-3.00123072-.7659983-.87535897-2.1703284-.87535897-3.0639931 0zm-17.234961.37515384c3.1916594 3.126282 3.1916594 8.25338446 0 11.37966646-1.6596629 1.6256667-3.702325 2.3759744-5.74498702 2.3759744-2.04266204 0-4.21299047-.7503077-5.74498701-2.3759744-3.19165945-3.126282-3.19165945-8.25338446 0-11.37966646 3.06399308-3.12628201 8.29831453-3.12628201 11.48997403 0zm-3.1916595 3.00123072c-.7659982-.75030768-1.65966287-1.12546152-2.6809939-1.12546152-1.02133102 0-1.91499566.37515384-2.68099393 1.12546152-1.53199654 1.50061537-1.53199654 3.75153841 0 5.25215374 1.53199653 1.5006154 3.82999134 1.5006154 5.36198783 0 1.5319966-1.37556405 1.5319966-3.75153837 0-5.25215374zM30.8612684 20.1360571c2.1703284 0 4.2129905.875359 5.744987 2.3759743 3.1916595 3.126282 3.1916595 8.2533845 0 11.3796665-1.5319965 1.5006154-3.5746586 2.3759744-5.744987 2.3759744-2.1703284 0-4.2129905-.875359-5.744987-2.3759744-3.1916595-3.126282-3.1916595-8.2533845 0-11.3796665 1.5319965-1.6256666 3.5746586-2.3759743 5.744987-2.3759743zm2.6809939 5.377205c-.7659982-.7503076-1.6596629-1.1254615-2.6809939-1.1254615-1.021331 0-1.9149957.3751539-2.6809939 1.1254615-1.5319966 1.5006154-1.5319966 3.7515385 0 5.2521538.7659982.7503077 1.6596629 1.1254615 2.6809939 1.1254615 1.021331 0 1.9149957-.3751538 2.6809939-1.1254615 1.5319966-1.5006153 1.5319966-3.8765897 0-5.2521538z"/>
    </symbol>


    <symbol id="symbol-triangle" viewBox="0 0 13 14">
        <path fill="#FFF" fill-rule="evenodd" d="M12.8236576 6.6006227L.7146319 13.1364984V.064747z"/>
    </symbol>

    <symbol id="symbol-menu" viewBox="0 0 24 24">
        <path fill="none" d="M0 0h24v24H0z"/>
        <path d="M3 18h18v-2H3v2zm0-5h18v-2H3v2zm0-7v2h18V6H3z"/>
    </symbol>

    <symbol id="symbol-arrow-right" viewBox="0 0 24 24">
        <path fill="none" d="M0 0h24v24H0z"/>
        <path d="M12 4l-1.41 1.41L16.17 11H4v2h12.17l-5.58 5.59L12 20l8-8z"/>
    </symbol>

    <symbol id="symbol-arrow-down" viewBox="0 0 24 24">
        <path fill="none" d="M0 0h24v24H0V0z"/>
        <path d="M20 12l-1.41-1.41L13 16.17V4h-2v12.17l-5.58-5.59L4 12l8 8 8-8z"/>
    </symbol>

    <symbol id="symbol-logo" viewBox="0 0 155.81 34">
        <path fill="#323f4c"
              d="M42.13 8.41a8.25 8.25 0 0 0-6.2 2.26q-2.19 2.26-2.19 6.52v5.9a9.18 9.18 0 0 0 2.14 6.2q2.15 2.49 6.34 2.49t6.27-2.47a9.32 9.32 0 0 0 2.07-6.22v-5.9a9 9 0 0 0-2.21-6.43 8.13 8.13 0 0 0-6.22-2.35zm5.19 15.13A5.28 5.28 0 0 1 46 27.37a4.94 4.94 0 0 1-3.74 1.41A4.88 4.88 0 0 1 37 23.54v-6.35q0-5.69 5.23-5.69t5.1 5.69zm38.81-4.03c-1.19-.47-2.38-.91-3.59-1.29a16 16 0 0 1-3.24-1.44 2.58 2.58 0 0 1-1.45-2.32A2.69 2.69 0 0 1 79 12.24a5.8 5.8 0 0 1 3.5-.87 6 6 0 0 1 3.79 1.12l1-2.82-.54-.32A8.22 8.22 0 0 0 85 8.7a10.65 10.65 0 0 0-2.71-.33q-4.09 0-5.93 2a6 6 0 0 0-1.82 4.2 5 5 0 0 0 1.66 3.83 8.48 8.48 0 0 0 3.14 2c1.19.42 2.37.81 3.54 1.18a9.62 9.62 0 0 1 3 1.53 3.12 3.12 0 0 1 1.21 2.59 2.77 2.77 0 0 1-1.42 2.51 6.87 6.87 0 0 1-6.78-.05 3.3 3.3 0 0 1-1.67-2.57l-3.22.05a6 6 0 0 0 2.3 4.53A9.3 9.3 0 0 0 82.43 32a8.48 8.48 0 0 0 5.93-1.86 5.71 5.71 0 0 0 2-4.36 6.18 6.18 0 0 0-1.24-4 7.48 7.48 0 0 0-2.99-2.27zM102.21 8.5a8.73 8.73 0 0 0-6 2 7.12 7.12 0 0 0-2.28 5.64v9.17q0 6.54 7.85 6.54a13.81 13.81 0 0 0 7.22-2.09l-1.21-2.64a13 13 0 0 1-6.12 1.88c-3 0-4.51-1.27-4.51-3.81v-2.36l13-.68V16a7.23 7.23 0 0 0-2.1-5.52 8.11 8.11 0 0 0-5.85-1.98zm4.65 10.79l-9.7.49V16.2a4.43 4.43 0 0 1 1.38-3.53 4.87 4.87 0 0 1 3.36-1.21 6 6 0 0 1 3.47 1 3.8 3.8 0 0 1 1.49 3.38zM21.11 8.55a14.81 14.81 0 0 0-7.26 2.15 6.9 6.9 0 0 0-5.12-2.11A11.33 11.33 0 0 0 3.11 10V8.88H0v22.45h3.25V12.89a9.59 9.59 0 0 1 4.87-1.34 4.49 4.49 0 0 1 3.79 1.65 5.29 5.29 0 0 1 1 3.36v14.77h3.25V15.71a6.56 6.56 0 0 0-.59-2.82l1.4-.67a8.57 8.57 0 0 1 2.34-.63h1.47a6 6 0 0 1 1.6.27c1.68.56 2.53 2.13 2.53 4.69v14.78h3.24V15.84a7.42 7.42 0 0 0-1.89-5.23 6.62 6.62 0 0 0-5.15-2.06zm45.27 10.96c-1.19-.51-2.38-.91-3.59-1.29a16.38 16.38 0 0 1-3.25-1.44 2.59 2.59 0 0 1-1.44-2.32 2.66 2.66 0 0 1 1.15-2.22 5.78 5.78 0 0 1 3.5-.87 6 6 0 0 1 3.78 1.12l1-2.82-.53-.32a8.22 8.22 0 0 0-1.8-.65 10.7 10.7 0 0 0-2.71-.33c-2.74 0-4.71.65-5.93 2a6 6 0 0 0-1.83 4.2 5.05 5.05 0 0 0 1.67 3.83 8.4 8.4 0 0 0 3.14 2c1.18.42 2.36.81 3.54 1.18a9.45 9.45 0 0 1 3 1.53 3.1 3.1 0 0 1 1.22 2.59 2.77 2.77 0 0 1-1.42 2.51 6.89 6.89 0 0 1-6.79-.05 3.33 3.33 0 0 1-1.67-2.57l-3.15.13a5.94 5.94 0 0 0 2.3 4.53A9.3 9.3 0 0 0 62.68 32a8.48 8.48 0 0 0 5.93-1.86 5.75 5.75 0 0 0 2-4.36 6.18 6.18 0 0 0-1.24-4 7.55 7.55 0 0 0-2.99-2.27zM127 9.4l-.17-.06a12.32 12.32 0 0 0-4.57-.79 9.51 9.51 0 0 0-4.82 1.21V0h-3.25v31.33a52.35 52.35 0 0 0 7.17.54 12.93 12.93 0 0 0 6-1.35 6.18 6.18 0 0 0 2-1.52 6.88 6.88 0 0 0 1.55-4.7v-8.46q-.1-4.69-3.91-6.44zm-1 18.26a6.55 6.55 0 0 1-3.88 1.16 8.35 8.35 0 0 1-1.29.05 27.08 27.08 0 0 1-3.4-.32V12.89a9.33 9.33 0 0 1 2.88-1.07l2.26-.23a5.07 5.07 0 0 1 3.87 1.41 4.1 4.1 0 0 1 .37.48 5 5 0 0 1 .8 2.88v8a4 4 0 0 1-1.61 3.3zM149.76 31a2.5 2.5 0 0 0-1.95-1.95V29h-.5a2.5 2.5 0 0 0-2.45 2 2.73 2.73 0 0 0-.05.5 2.5 2.5 0 0 0 2.5 2.5 2.73 2.73 0 0 0 .5 0 2.5 2.5 0 0 0 2-2.45 2.73 2.73 0 0 0-.05-.55zm-7 0a2.5 2.5 0 0 0-2.45-2h-.5v.05a2.5 2.5 0 0 0-1.95 1.95 2.73 2.73 0 0 0-.05.5 2.5 2.5 0 0 0 2 2.45 2.73 2.73 0 0 0 .5 0 2.5 2.5 0 0 0 2.5-2.5 2.73 2.73 0 0 0-.05-.45zm6.85-9l-1.38-.62-.07.09a4.45 4.45 0 0 1-.62.53 5.28 5.28 0 0 1-3.16.92 5.16 5.16 0 0 1-3.85-1.45 5.31 5.31 0 0 1-1.44-3.93v-.3l-3.28-1.49v1.33a9.46 9.46 0 0 0 2.19 6.37 5.49 5.49 0 0 0 .53.55 6.38 6.38 0 0 0 1.3.95 9.17 9.17 0 0 0 4.55 1.05 10.25 10.25 0 0 0 3.43-.54 6.61 6.61 0 0 0 2.41-1.46c.17-.17.34-.34.5-.53a7.4 7.4 0 0 0 .53-.72z"/>
        <path fill="#f28d1b"
              d="M152.51 8.18a4.7 4.7 0 0 0-1.2-.18 4.41 4.41 0 0 0-2.08.54 4.49 4.49 0 0 0 2.08 8.46 4.39 4.39 0 0 0 1.5-.28 4.47 4.47 0 0 0-.3-8.54z"/>
    </symbol>

    <symbol id="social-vk" viewBox="0 0 1000 1000">
        <path
            d="M500 10C229.4 10 10 229.4 10 500s219.4 490 490 490 490-219.4 490-490S770.6 10 500 10zm188.4 552.8s43.3 42.8 54 62.6c.3.4.5.8.6 1 4.3 7.3 5.4 13 3.2 17.2-3.6 7-15.8 10.5-20 10.8h-76.6c-5.3 0-16.4-1.4-29.9-10.7-10.4-7.2-20.6-19.1-30.5-30.7-14.9-17.3-27.7-32.2-40.7-32.2-1.6 0-3.3.3-4.8.8-9.8 3.2-22.4 17.1-22.4 54.4 0 11.6-9.2 18.3-15.7 18.3h-35.1c-11.9 0-74.2-4.2-129.3-62.3-67.5-71.2-128.2-214-128.7-215.3-3.8-9.2 4.1-14.2 12.7-14.2h77.3c10.3 0 13.7 6.3 16 11.8 2.8 6.5 12.9 32.3 29.5 61.3 26.9 47.3 43.4 66.5 56.6 66.5 2.5 0 4.8-.7 7.1-1.8 17.3-9.6 14-71.1 13.3-83.9 0-2.4-.1-27.5-8.9-39.6-6.3-8.7-17.1-12-23.6-13.3 1.7-2.5 5.5-6.3 10.2-8.6 11.8-5.9 33.2-6.8 54.4-6.8h11.8c23 .3 28.9 1.8 37.2 3.9 16.8 4 17.2 14.9 15.7 52.1-.5 10.6-.9 22.5-.9 36.6 0 3.1-.2 6.3-.2 9.8-.5 18.9-1.1 40.4 12.3 49.3 1.7 1.1 3.7 1.7 5.8 1.7 4.6 0 18.6 0 56.5-65 16.6-28.7 29.5-62.5 30.4-65 .8-1.3 3-5.4 5.7-7 2.1-1.2 4.9-1.5 6.3-1.5h90.9c9.9 0 16.7 1.5 18 5.3 2.2 6.1-.4 24.6-41.9 80.8-7 9.3-13.2 17.4-18.5 24.4-37.7 49.4-37.7 51.9 2.2 89.3z"/>
    </symbol>

    <symbol id="social-in" viewBox="0 0 33 32">
        <path
            d="M16.555 19.07a3.186 3.186 0 0 0 3.182-3.181 3.17 3.17 0 0 0-.602-1.854 3.177 3.177 0 0 0-2.578-1.327 3.18 3.18 0 0 0-2.58 1.326 3.166 3.166 0 0 0-.602 1.854 3.183 3.183 0 0 0 3.18 3.181zm6.946-7.073V8.934l-.4.002-2.664.008.01 3.064z"/>
        <path
            d="M16.555 0C7.795 0 .667 7.128.667 15.889c0 8.76 7.127 15.888 15.888 15.888 8.76 0 15.889-7.128 15.889-15.888C32.444 7.128 25.317 0 16.555 0zm9.036 14.035v7.398a3.496 3.496 0 0 1-3.492 3.493H11.012a3.496 3.496 0 0 1-3.493-3.493V10.346a3.496 3.496 0 0 1 3.493-3.493h11.086a3.496 3.496 0 0 1 3.493 3.493v3.689z"/>
        <path
            d="M21.498 15.889a4.949 4.949 0 0 1-4.943 4.942 4.948 4.948 0 0 1-4.942-4.942c0-.656.13-1.282.364-1.854H9.279v7.398c0 .956.776 1.73 1.732 1.73h11.087c.954 0 1.732-.774 1.732-1.73v-7.398h-2.7a4.85 4.85 0 0 1 .368 1.854z"/>
    </symbol>

    <symbol id="social-fb" viewBox="0 0 33 32">
        <path
            d="M16.222 0C7.461 0 .333 7.128.333 15.889c0 8.76 7.128 15.888 15.889 15.888 8.76 0 15.889-7.128 15.889-15.888C32.11 7.128 24.984 0 16.222 0zm3.951 16.448h-2.585v9.213h-3.83v-9.213h-1.82v-3.256h1.82v-2.107c0-1.508.717-3.865 3.866-3.865l2.838.01v3.162h-2.06c-.336 0-.812.167-.812.887v1.913h2.918l-.335 3.256z"/>
    </symbol>

    <symbol id="social-pi" viewBox="0 0 999.9 999.9">
        <path
            d="M0 500c2.6-141.9 52.7-260.4 150.4-355.4S364.6 1.3 500 0c145.8 2.6 265.3 52.4 358.4 149.4 93.1 97 140.3 213.9 141.6 350.6-2.6 140.6-52.7 258.8-150.4 354.5-97.7 95.6-214.2 144.1-349.6 145.4-46.9 0-93.7-7.2-140.6-21.5 9.1-14.3 18.2-30.6 27.3-48.8 10.4-22.1 23.4-63.8 39.1-125 3.9-16.9 9.8-39.7 17.6-68.4 9.1 15.6 24.7 29.9 46.9 43 58.6 27.3 120.4 24.7 185.5-7.8 67.7-39.1 114.6-99.6 140.6-181.6 23.4-85.9 20.5-165.7-8.8-239.2C778.3 277 725.9 224 650.4 191.4c-95-27.3-187.5-24.4-277.3 8.8s-152.3 90.2-187.5 170.9C176.5 401 171 430.7 169 460c-2 29.3-1 57.9 2.9 85.9s13.7 53.1 29.3 75.2 36.5 39.1 62.5 50.8c6.5 2.6 11.7 2.6 15.6 0 5.2-2.6 10.4-13 15.6-31.2 5.2-18.2 7.2-30.6 5.9-37.1-1.3-2.6-3.9-7.2-7.8-13.7-27.3-44.3-36.5-90.8-27.3-139.6 9.1-48.8 29.3-90.2 60.5-124 48.2-43 104.5-66.4 168.9-70.3 64.4-3.9 119.5 13.7 165 52.7 24.7 28.6 40.7 63.1 47.8 103.5s7.2 79.1 0 116.2c-7.2 37.1-19.9 71.9-38.1 104.5-32.6 50.8-71 76.8-115.2 78.1-26-1.3-47.2-11.4-63.5-30.3s-21.2-40.7-14.6-65.4c2.6-14.3 10.4-42.3 23.4-84 13-41.7 20.2-72.9 21.5-93.7-3.9-49.5-26.7-74.9-68.4-76.2-32.6 3.9-56.6 18.6-72.3 43.9s-24.1 54.4-25.4 86.9c3.9 37.8 9.8 63.8 17.6 78.1-14.3 58.6-25.4 105.5-33.2 140.6-2.6 9.1-9.8 37.1-21.5 84s-18.2 82.7-19.5 107.4V957C206.3 914 133.3 851.9 80 770.5 26.7 689.1 0 598.9 0 500z"/>
    </symbol>

    <symbol id="social-you" viewBox="0 0 1000 1000">
        <path
            d="M448.21 12.46C274.84 29.82 118.62 145.11 49.83 306.26c-80.36 188.37-36.86 404.59 110.15 546.67 75.43 72.86 164.79 116.36 273.23 133.29 31.93 4.93 102.22 4.93 135.01 0 108.01-16.29 203.15-64.07 278.58-139.51 38.57-38.36 68.15-79.5 92.79-128.79 22.72-45.64 38.57-96.43 46.72-149.79 4.93-32.79 4.93-103.08 0-135.01-10.71-68.79-31.29-127.93-63.22-181.51C832.66 99.89 671.29 8.38 496.64 10.1c-16.08.22-37.72 1.29-48.43 2.36zm-79.94 231.01c5.57 20.57 10.71 39.86 11.36 42.86 1.93 7.71 3.21 4.29 15-41.36l10.29-40.07h18.86c10.5 0 19.07.21 19.07.64 0 .21-9.64 29.36-21.43 64.72l-21.43 64.29v88.93h-36.43v-86.79l-21.43-64.29c-11.79-35.36-21.43-64.93-21.43-66 0-.86 8.36-1.29 18.64-1.07l18.64.64 10.29 37.5zm146.37 19.07c10.5 4.71 19.5 14.79 22.5 25.5 1.71 5.14 2.14 25.72 1.71 58.29l-.64 50.36-5.79 10.07c-8.14 13.71-21 19.93-41.36 19.71-22.29-.21-35.57-7.93-42.86-25.07-4.93-11.79-4.71-110.15.21-120.86 4.07-8.14 14.57-17.14 23.79-19.93 10.93-3.21 33.22-2.35 42.44 1.93zm82.5 64.29c0 53.36.43 64.5 3.21 66.65 3.64 3 9.43 1.5 16.93-4.5l5.57-4.29V262.76h34.29v160.72h-34.28V408.7l-10.71 7.29c-18.22 12.22-34.72 12.43-43.72.43-4.29-5.79-4.5-8.79-5.14-79.93l-.64-73.72h34.5v64.06zm44.57 161.8c60 6.21 78.43 12 86.15 27 10.71 21 16.93 69.43 16.93 131.79 0 64.93-6.43 113.58-18 133.29-6.22 10.29-17.36 15.43-42.86 19.71-73.72 12.64-254.58 14.36-344.8 3.21-37.29-4.5-52.5-8.79-60.43-16.93-15.21-15-23.14-62.15-23.14-139.29 0-73.5 7.5-121.51 21.43-138.01 10.71-12.84 41.57-18.2 138-24.63 31.93-2.14 195.86.86 226.72 3.86z"/>
        <path
            d="M482.71 289.76c-3 2.79-3.43 10.71-3.43 53.14 0 35.79.64 50.36 2.57 52.29 3.86 3.86 15.64 3 19.5-1.29 3.21-3.43 3.64-10.29 3.64-52.5 0-47.57 0-48.43-4.72-51.65-6.21-4.27-13.28-4.27-17.56.01zM303.56 561.7v13.93h32.14v167.16h32.14V575.63h32.14v-27.86h-96.44v13.93zm214.29 83.58v97.5h13.93c13.71 0 13.93 0 13.93-6 0-3.21.86-4.71 1.71-3.43 3.21 5.14 16.93 11.57 24.43 11.57 10.71 0 17.36-3.43 22.29-11.36 3.64-6.22 4.07-11.36 4.07-60.43 0-47.57-.43-54.43-3.86-61.5-7.72-15.21-26.36-18.43-41.36-7.07l-7.28 5.57v-62.36h-27.86v97.51zm47.36-22.72c5.14 4.07 5.14 4.5 5.14 49.08 0 47.79-.86 51.86-10.5 51.86-2.57 0-6.86-1.5-9.43-3.43-4.71-3.21-4.71-4.07-4.71-49.07s0-45.86 4.71-49.08c6.22-4.5 8.79-4.29 14.79.64zm78.43-25.07c-11.14 3-24 15.64-27 26.36-3 11.14-3 83.15 0 94.29 5.14 18.21 19.07 28.71 38.36 28.93 27 0 42.86-15.86 42.86-43.5v-7.93h-13.93c-13.29 0-13.93.21-13.93 5.14 0 16.93-6.43 24.86-18 21.86-6.86-1.71-9.86-11.57-9.86-33v-15.43h55.72v-23.14c-.21-31.07-4.93-43.29-19.5-50.79-7.93-4.08-25.07-5.58-34.72-2.79zm22.29 26.57c1.5 1.93 3.21 9 3.64 16.07l.86 12.64h-28.72l.86-12.64c1.07-15 4.07-19.5 13.5-19.5 3.86 0 8.14 1.5 9.86 3.43zm-250.51 43.93l.64 68.79 5.14 4.07c9.22 7.5 24.22 4.93 37.07-6.43 8.36-7.29 10.29-6.86 10.29 2.36 0 6 .21 6 12.86 6h12.86V599.2h-25.72v108.44l-5.79 5.57c-7.29 6.64-13.5 8.79-17.79 6-2.79-1.71-3.21-11.36-3.86-61.07l-.64-58.93h-25.72l.66 68.78z"/>
    </symbol>

    <symbol id="social-zen" viewBox="0 0 454 454">
        <circle cx="227" cy="227" r="227"/>
        <path fill="#CDCDCD" d="M309.797 185.408L178.94 299.17l-33.602-38.651 130.859-113.762z"/>
        <path fill="#FFF" d="M146.28 78L310 134.336v51.214l-163.72-56.335zM145 260.45l163.721 56.336V368L145 311.665z"/>
    </symbol>

    <symbol id="social-ok" viewBox="0 0 97.8 97.8">
        <path
            d="M48.9 40.5c4.7 0 8.4-3.8 8.4-8.4 0-4.7-3.7-8.4-8.4-8.4s-8.5 3.8-8.4 8.5c0 4.6 3.7 8.3 8.4 8.3z"/>
        <path
            d="M48.9 0C21.9 0 0 21.9 0 48.9s21.9 48.9 48.9 48.9 48.9-21.9 48.9-48.9S75.9 0 48.9 0zm0 14.9c9.5 0 17.2 7.8 17.1 17.4 0 9.4-7.8 17-17.3 17-9.4 0-17.1-7.8-17.1-17.3.1-9.5 7.8-17.2 17.3-17.1zm19.3 41.2c-2.1 2.2-4.6 3.7-7.5 4.8-2.7 1-5.6 1.6-8.5 1.9.4.5.6.7.9 1l11.8 11.8c1.3 1.3 1.6 3 .9 4.6-.8 1.7-2.6 2.8-4.4 2.7-1.1-.1-2-.6-2.8-1.4-3-3-6-5.9-8.9-8.9-.8-.9-1.2-.7-2 .1-3 3.1-6 6.1-9 9.1-1.4 1.3-3 1.6-4.6.8-1.7-.8-2.8-2.5-2.7-4.3.1-1.2.6-2.1 1.4-2.9l11.6-11.6.9-.9c-5.3-.6-10-1.8-14.1-5l-1.5-1.2c-1.8-1.7-2-3.7-.6-5.7 1.2-1.7 3.2-2.2 5.3-1.2.4.2.8.4 1.2.7 7.6 5.2 18 5.4 25.6.2.8-.6 1.6-1 2.5-1.3 1.8-.5 3.5.2 4.5 1.8 1.4 1.7 1.4 3.4 0 4.9z"/>
    </symbol>

    <symbol id="social-embed-fb" viewBox="0 0 430.113 430.114">
        <path
            d="M158.081 83.3v59.218h-43.385v72.412h43.385v215.183h89.122V214.936h59.805s5.601-34.721 8.316-72.685H247.54V92.74c0-7.4 9.717-17.354 19.321-17.354h48.557V.001h-66.021C155.878-.004 158.081 72.48 158.081 83.3z"/>
    </symbol>

    <symbol id="social-embed-in" viewBox="0 0 430.117 430.117">
        <path
            d="M430.117 261.543V420.56h-92.188V272.193c0-37.271-13.334-62.707-46.703-62.707-25.473 0-40.632 17.142-47.301 33.724-2.432 5.928-3.058 14.179-3.058 22.477V420.56h-92.219s1.242-251.285 0-277.32h92.21v39.309c-.187.294-.43.611-.606.896h.606v-.896c12.251-18.869 34.13-45.824 83.102-45.824 60.673-.001 106.157 39.636 106.157 124.818zM52.183 9.558C20.635 9.558 0 30.251 0 57.463c0 26.619 20.038 47.94 50.959 47.94h.616c32.159 0 52.159-21.317 52.159-47.94-.606-27.212-20-47.905-51.551-47.905zM5.477 420.56h92.184V143.24H5.477v277.32z"/>
    </symbol>

    <symbol id="direct-tg" viewBox="0 0 60 60">
        <g fill="none" fill-rule="evenodd">
            <circle cx="30" cy="30" r="30" fill="#37AEE2"/>
            <path fill="#C8DAEA" d="M24.5 43.75c-.972 0-.807-.367-1.142-1.292L20.5 33.05 42.5 20"/>
            <path fill="#A9C9DD" d="M24.5 43.75c.75 0 1.081-.343 1.5-.75l4-3.89-4.99-3.008"/>
            <path fill="#FFF"
                  d="M25.01 36.102l12.09 8.933c1.38.761 2.375.367 2.719-1.281l4.921-23.19c.504-2.02-.77-2.937-2.09-2.338L13.753 29.37c-1.973.791-1.961 1.891-.36 2.382l7.416 2.314 17.168-10.83c.81-.492 1.555-.228.944.314"/>
        </g>
    </symbol>

    <symbol id="direct-fb" viewBox="0 0 311.6 311.6">
        <circle cx="155.8" cy="155.8" r="155.8" fill="#00bcff"/>
        <path fill="#fff" d="M51.6 202.9l87.6-94.2 42.3 42.9 78.5-42.9-86.1 94.2-39.5-39.9z"/>
    </symbol>

    <symbol id="direct-wechat" viewBox="0 0 512 512">
        <circle cx="256" cy="256" r="256" fill="#00d00b"/>
        <path d="M243.3 227.3c20.5-17.5 47.7-27.2 76.6-27.2 3.3 0 6.6.1 9.9.4-11-47-59.6-82.4-117.9-82.4-66.4 0-120.3 46-120.3 102.7 0 29.6 14.7 56.3 38.2 75l-9.8 44.1 43.1-25.2c14.9 5.6 31.4 8.8 48.7 8.8 1.4 0 2.8 0 4.2-.1-3.4-9.2-5.2-19-5.2-28.9.1-25.5 11.6-49.4 32.5-67.2zm10.9-61.3c8.5 0 15.4 6.9 15.4 15.4s-6.9 15.4-15.4 15.4-15.4-6.9-15.4-15.4 6.9-15.4 15.4-15.4zm-87.3 30.8c-8.5 0-15.4-6.9-15.4-15.4s6.9-15.4 15.4-15.4 15.4 6.9 15.4 15.4-6.9 15.4-15.4 15.4z" fill="#fff" />
        <path d="M319.9 208.7c-55.5 0-100.4 38.4-100.4 85.7s45 85.7 100.4 85.7c14.5 0 28.3-2.6 40.7-7.3l36 21.1-8.2-36.8c19.6-15.6 31.9-37.9 31.9-62.7.1-47.3-44.9-85.7-100.4-85.7zm-35.3 40c7.1 0 12.9 5.8 12.9 12.9s-5.8 12.9-12.9 12.9-12.9-5.8-12.9-12.9c.1-7.1 5.8-12.9 12.9-12.9zm72.9 25.7c-7.1 0-12.9-5.8-12.9-12.9 0-7.1 5.8-12.9 12.9-12.9s12.9 5.8 12.9 12.9-5.8 12.9-12.9 12.9z" fill="#fff" />
    </symbol>

</svg>


