<svg xmlns="http://www.w3.org/2000/svg" style="display:none; position:absolute; width:0; height:0;">


    <svg id="symbol-menu" viewBox="0 0 24 24">
        <path fill="none" d="M0 0h24v24H0z"/>
        <path d="M3 18h18v-2H3v2zm0-5h18v-2H3v2zm0-7v2h18V6H3z"/>
    </svg>

    <symbol id="symbol-arrow-right" viewBox="0 0 24 24">
        <path fill="none" d="M0 0h24v24H0z"/>
        <path d="M12 4l-1.41 1.41L16.17 11H4v2h12.17l-5.58 5.59L12 20l8-8z"/>
    </symbol>

    <symbol id="symbol-arrow-down" viewBox="0 0 24 24">
        <path fill="none" d="M0 0h24v24H0V0z"/>
        <path d="M20 12l-1.41-1.41L13 16.17V4h-2v12.17l-5.58-5.59L4 12l8 8 8-8z"/>
    </symbol>

    <symbol id="symbol-logo" viewBox="0 0 155.81 34">
        <path fill="#323f4c"
              d="M42.13 8.41a8.25 8.25 0 0 0-6.2 2.26q-2.19 2.26-2.19 6.52v5.9a9.18 9.18 0 0 0 2.14 6.2q2.15 2.49 6.34 2.49t6.27-2.47a9.32 9.32 0 0 0 2.07-6.22v-5.9a9 9 0 0 0-2.21-6.43 8.13 8.13 0 0 0-6.22-2.35zm5.19 15.13A5.28 5.28 0 0 1 46 27.37a4.94 4.94 0 0 1-3.74 1.41A4.88 4.88 0 0 1 37 23.54v-6.35q0-5.69 5.23-5.69t5.1 5.69zm38.81-4.03c-1.19-.47-2.38-.91-3.59-1.29a16 16 0 0 1-3.24-1.44 2.58 2.58 0 0 1-1.45-2.32A2.69 2.69 0 0 1 79 12.24a5.8 5.8 0 0 1 3.5-.87 6 6 0 0 1 3.79 1.12l1-2.82-.54-.32A8.22 8.22 0 0 0 85 8.7a10.65 10.65 0 0 0-2.71-.33q-4.09 0-5.93 2a6 6 0 0 0-1.82 4.2 5 5 0 0 0 1.66 3.83 8.48 8.48 0 0 0 3.14 2c1.19.42 2.37.81 3.54 1.18a9.62 9.62 0 0 1 3 1.53 3.12 3.12 0 0 1 1.21 2.59 2.77 2.77 0 0 1-1.42 2.51 6.87 6.87 0 0 1-6.78-.05 3.3 3.3 0 0 1-1.67-2.57l-3.22.05a6 6 0 0 0 2.3 4.53A9.3 9.3 0 0 0 82.43 32a8.48 8.48 0 0 0 5.93-1.86 5.71 5.71 0 0 0 2-4.36 6.18 6.18 0 0 0-1.24-4 7.48 7.48 0 0 0-2.99-2.27zM102.21 8.5a8.73 8.73 0 0 0-6 2 7.12 7.12 0 0 0-2.28 5.64v9.17q0 6.54 7.85 6.54a13.81 13.81 0 0 0 7.22-2.09l-1.21-2.64a13 13 0 0 1-6.12 1.88c-3 0-4.51-1.27-4.51-3.81v-2.36l13-.68V16a7.23 7.23 0 0 0-2.1-5.52 8.11 8.11 0 0 0-5.85-1.98zm4.65 10.79l-9.7.49V16.2a4.43 4.43 0 0 1 1.38-3.53 4.87 4.87 0 0 1 3.36-1.21 6 6 0 0 1 3.47 1 3.8 3.8 0 0 1 1.49 3.38zM21.11 8.55a14.81 14.81 0 0 0-7.26 2.15 6.9 6.9 0 0 0-5.12-2.11A11.33 11.33 0 0 0 3.11 10V8.88H0v22.45h3.25V12.89a9.59 9.59 0 0 1 4.87-1.34 4.49 4.49 0 0 1 3.79 1.65 5.29 5.29 0 0 1 1 3.36v14.77h3.25V15.71a6.56 6.56 0 0 0-.59-2.82l1.4-.67a8.57 8.57 0 0 1 2.34-.63h1.47a6 6 0 0 1 1.6.27c1.68.56 2.53 2.13 2.53 4.69v14.78h3.24V15.84a7.42 7.42 0 0 0-1.89-5.23 6.62 6.62 0 0 0-5.15-2.06zm45.27 10.96c-1.19-.51-2.38-.91-3.59-1.29a16.38 16.38 0 0 1-3.25-1.44 2.59 2.59 0 0 1-1.44-2.32 2.66 2.66 0 0 1 1.15-2.22 5.78 5.78 0 0 1 3.5-.87 6 6 0 0 1 3.78 1.12l1-2.82-.53-.32a8.22 8.22 0 0 0-1.8-.65 10.7 10.7 0 0 0-2.71-.33c-2.74 0-4.71.65-5.93 2a6 6 0 0 0-1.83 4.2 5.05 5.05 0 0 0 1.67 3.83 8.4 8.4 0 0 0 3.14 2c1.18.42 2.36.81 3.54 1.18a9.45 9.45 0 0 1 3 1.53 3.1 3.1 0 0 1 1.22 2.59 2.77 2.77 0 0 1-1.42 2.51 6.89 6.89 0 0 1-6.79-.05 3.33 3.33 0 0 1-1.67-2.57l-3.15.13a5.94 5.94 0 0 0 2.3 4.53A9.3 9.3 0 0 0 62.68 32a8.48 8.48 0 0 0 5.93-1.86 5.75 5.75 0 0 0 2-4.36 6.18 6.18 0 0 0-1.24-4 7.55 7.55 0 0 0-2.99-2.27zM127 9.4l-.17-.06a12.32 12.32 0 0 0-4.57-.79 9.51 9.51 0 0 0-4.82 1.21V0h-3.25v31.33a52.35 52.35 0 0 0 7.17.54 12.93 12.93 0 0 0 6-1.35 6.18 6.18 0 0 0 2-1.52 6.88 6.88 0 0 0 1.55-4.7v-8.46q-.1-4.69-3.91-6.44zm-1 18.26a6.55 6.55 0 0 1-3.88 1.16 8.35 8.35 0 0 1-1.29.05 27.08 27.08 0 0 1-3.4-.32V12.89a9.33 9.33 0 0 1 2.88-1.07l2.26-.23a5.07 5.07 0 0 1 3.87 1.41 4.1 4.1 0 0 1 .37.48 5 5 0 0 1 .8 2.88v8a4 4 0 0 1-1.61 3.3zM149.76 31a2.5 2.5 0 0 0-1.95-1.95V29h-.5a2.5 2.5 0 0 0-2.45 2 2.73 2.73 0 0 0-.05.5 2.5 2.5 0 0 0 2.5 2.5 2.73 2.73 0 0 0 .5 0 2.5 2.5 0 0 0 2-2.45 2.73 2.73 0 0 0-.05-.55zm-7 0a2.5 2.5 0 0 0-2.45-2h-.5v.05a2.5 2.5 0 0 0-1.95 1.95 2.73 2.73 0 0 0-.05.5 2.5 2.5 0 0 0 2 2.45 2.73 2.73 0 0 0 .5 0 2.5 2.5 0 0 0 2.5-2.5 2.73 2.73 0 0 0-.05-.45zm6.85-9l-1.38-.62-.07.09a4.45 4.45 0 0 1-.62.53 5.28 5.28 0 0 1-3.16.92 5.16 5.16 0 0 1-3.85-1.45 5.31 5.31 0 0 1-1.44-3.93v-.3l-3.28-1.49v1.33a9.46 9.46 0 0 0 2.19 6.37 5.49 5.49 0 0 0 .53.55 6.38 6.38 0 0 0 1.3.95 9.17 9.17 0 0 0 4.55 1.05 10.25 10.25 0 0 0 3.43-.54 6.61 6.61 0 0 0 2.41-1.46c.17-.17.34-.34.5-.53a7.4 7.4 0 0 0 .53-.72z"/>
        <path fill="#f28d1b"
              d="M152.51 8.18a4.7 4.7 0 0 0-1.2-.18 4.41 4.41 0 0 0-2.08.54 4.49 4.49 0 0 0 2.08 8.46 4.39 4.39 0 0 0 1.5-.28 4.47 4.47 0 0 0-.3-8.54z"/>
    </symbol>

    <symbol id="social-vk" viewBox="0 0 1000 1000">
        <path
            d="M500 10C229.4 10 10 229.4 10 500s219.4 490 490 490 490-219.4 490-490S770.6 10 500 10zm188.4 552.8s43.3 42.8 54 62.6c.3.4.5.8.6 1 4.3 7.3 5.4 13 3.2 17.2-3.6 7-15.8 10.5-20 10.8h-76.6c-5.3 0-16.4-1.4-29.9-10.7-10.4-7.2-20.6-19.1-30.5-30.7-14.9-17.3-27.7-32.2-40.7-32.2-1.6 0-3.3.3-4.8.8-9.8 3.2-22.4 17.1-22.4 54.4 0 11.6-9.2 18.3-15.7 18.3h-35.1c-11.9 0-74.2-4.2-129.3-62.3-67.5-71.2-128.2-214-128.7-215.3-3.8-9.2 4.1-14.2 12.7-14.2h77.3c10.3 0 13.7 6.3 16 11.8 2.8 6.5 12.9 32.3 29.5 61.3 26.9 47.3 43.4 66.5 56.6 66.5 2.5 0 4.8-.7 7.1-1.8 17.3-9.6 14-71.1 13.3-83.9 0-2.4-.1-27.5-8.9-39.6-6.3-8.7-17.1-12-23.6-13.3 1.7-2.5 5.5-6.3 10.2-8.6 11.8-5.9 33.2-6.8 54.4-6.8h11.8c23 .3 28.9 1.8 37.2 3.9 16.8 4 17.2 14.9 15.7 52.1-.5 10.6-.9 22.5-.9 36.6 0 3.1-.2 6.3-.2 9.8-.5 18.9-1.1 40.4 12.3 49.3 1.7 1.1 3.7 1.7 5.8 1.7 4.6 0 18.6 0 56.5-65 16.6-28.7 29.5-62.5 30.4-65 .8-1.3 3-5.4 5.7-7 2.1-1.2 4.9-1.5 6.3-1.5h90.9c9.9 0 16.7 1.5 18 5.3 2.2 6.1-.4 24.6-41.9 80.8-7 9.3-13.2 17.4-18.5 24.4-37.7 49.4-37.7 51.9 2.2 89.3z"/>
    </symbol>

    <symbol id="social-in" viewBox="0 0 33 32">
        <path
            d="M16.555 19.07a3.186 3.186 0 0 0 3.182-3.181 3.17 3.17 0 0 0-.602-1.854 3.177 3.177 0 0 0-2.578-1.327 3.18 3.18 0 0 0-2.58 1.326 3.166 3.166 0 0 0-.602 1.854 3.183 3.183 0 0 0 3.18 3.181zm6.946-7.073V8.934l-.4.002-2.664.008.01 3.064z"/>
        <path
            d="M16.555 0C7.795 0 .667 7.128.667 15.889c0 8.76 7.127 15.888 15.888 15.888 8.76 0 15.889-7.128 15.889-15.888C32.444 7.128 25.317 0 16.555 0zm9.036 14.035v7.398a3.496 3.496 0 0 1-3.492 3.493H11.012a3.496 3.496 0 0 1-3.493-3.493V10.346a3.496 3.496 0 0 1 3.493-3.493h11.086a3.496 3.496 0 0 1 3.493 3.493v3.689z"/>
        <path
            d="M21.498 15.889a4.949 4.949 0 0 1-4.943 4.942 4.948 4.948 0 0 1-4.942-4.942c0-.656.13-1.282.364-1.854H9.279v7.398c0 .956.776 1.73 1.732 1.73h11.087c.954 0 1.732-.774 1.732-1.73v-7.398h-2.7a4.85 4.85 0 0 1 .368 1.854z"/>
    </symbol>

    <symbol id="social-fb" viewBox="0 0 33 32">
        <path
            d="M16.222 0C7.461 0 .333 7.128.333 15.889c0 8.76 7.128 15.888 15.889 15.888 8.76 0 15.889-7.128 15.889-15.888C32.11 7.128 24.984 0 16.222 0zm3.951 16.448h-2.585v9.213h-3.83v-9.213h-1.82v-3.256h1.82v-2.107c0-1.508.717-3.865 3.866-3.865l2.838.01v3.162h-2.06c-.336 0-.812.167-.812.887v1.913h2.918l-.335 3.256z"/>
    </symbol>

    <symbol id="social-pi" viewBox="0 0 999.9 999.9">
        <path
            d="M0 500c2.6-141.9 52.7-260.4 150.4-355.4S364.6 1.3 500 0c145.8 2.6 265.3 52.4 358.4 149.4 93.1 97 140.3 213.9 141.6 350.6-2.6 140.6-52.7 258.8-150.4 354.5-97.7 95.6-214.2 144.1-349.6 145.4-46.9 0-93.7-7.2-140.6-21.5 9.1-14.3 18.2-30.6 27.3-48.8 10.4-22.1 23.4-63.8 39.1-125 3.9-16.9 9.8-39.7 17.6-68.4 9.1 15.6 24.7 29.9 46.9 43 58.6 27.3 120.4 24.7 185.5-7.8 67.7-39.1 114.6-99.6 140.6-181.6 23.4-85.9 20.5-165.7-8.8-239.2C778.3 277 725.9 224 650.4 191.4c-95-27.3-187.5-24.4-277.3 8.8s-152.3 90.2-187.5 170.9C176.5 401 171 430.7 169 460c-2 29.3-1 57.9 2.9 85.9s13.7 53.1 29.3 75.2 36.5 39.1 62.5 50.8c6.5 2.6 11.7 2.6 15.6 0 5.2-2.6 10.4-13 15.6-31.2 5.2-18.2 7.2-30.6 5.9-37.1-1.3-2.6-3.9-7.2-7.8-13.7-27.3-44.3-36.5-90.8-27.3-139.6 9.1-48.8 29.3-90.2 60.5-124 48.2-43 104.5-66.4 168.9-70.3 64.4-3.9 119.5 13.7 165 52.7 24.7 28.6 40.7 63.1 47.8 103.5s7.2 79.1 0 116.2c-7.2 37.1-19.9 71.9-38.1 104.5-32.6 50.8-71 76.8-115.2 78.1-26-1.3-47.2-11.4-63.5-30.3s-21.2-40.7-14.6-65.4c2.6-14.3 10.4-42.3 23.4-84 13-41.7 20.2-72.9 21.5-93.7-3.9-49.5-26.7-74.9-68.4-76.2-32.6 3.9-56.6 18.6-72.3 43.9s-24.1 54.4-25.4 86.9c3.9 37.8 9.8 63.8 17.6 78.1-14.3 58.6-25.4 105.5-33.2 140.6-2.6 9.1-9.8 37.1-21.5 84s-18.2 82.7-19.5 107.4V957C206.3 914 133.3 851.9 80 770.5 26.7 689.1 0 598.9 0 500z"/>
    </symbol>

    <symbol id="social-you" viewBox="0 0 1000 1000">
        <path
            d="M448.21 12.46C274.84 29.82 118.62 145.11 49.83 306.26c-80.36 188.37-36.86 404.59 110.15 546.67 75.43 72.86 164.79 116.36 273.23 133.29 31.93 4.93 102.22 4.93 135.01 0 108.01-16.29 203.15-64.07 278.58-139.51 38.57-38.36 68.15-79.5 92.79-128.79 22.72-45.64 38.57-96.43 46.72-149.79 4.93-32.79 4.93-103.08 0-135.01-10.71-68.79-31.29-127.93-63.22-181.51C832.66 99.89 671.29 8.38 496.64 10.1c-16.08.22-37.72 1.29-48.43 2.36zm-79.94 231.01c5.57 20.57 10.71 39.86 11.36 42.86 1.93 7.71 3.21 4.29 15-41.36l10.29-40.07h18.86c10.5 0 19.07.21 19.07.64 0 .21-9.64 29.36-21.43 64.72l-21.43 64.29v88.93h-36.43v-86.79l-21.43-64.29c-11.79-35.36-21.43-64.93-21.43-66 0-.86 8.36-1.29 18.64-1.07l18.64.64 10.29 37.5zm146.37 19.07c10.5 4.71 19.5 14.79 22.5 25.5 1.71 5.14 2.14 25.72 1.71 58.29l-.64 50.36-5.79 10.07c-8.14 13.71-21 19.93-41.36 19.71-22.29-.21-35.57-7.93-42.86-25.07-4.93-11.79-4.71-110.15.21-120.86 4.07-8.14 14.57-17.14 23.79-19.93 10.93-3.21 33.22-2.35 42.44 1.93zm82.5 64.29c0 53.36.43 64.5 3.21 66.65 3.64 3 9.43 1.5 16.93-4.5l5.57-4.29V262.76h34.29v160.72h-34.28V408.7l-10.71 7.29c-18.22 12.22-34.72 12.43-43.72.43-4.29-5.79-4.5-8.79-5.14-79.93l-.64-73.72h34.5v64.06zm44.57 161.8c60 6.21 78.43 12 86.15 27 10.71 21 16.93 69.43 16.93 131.79 0 64.93-6.43 113.58-18 133.29-6.22 10.29-17.36 15.43-42.86 19.71-73.72 12.64-254.58 14.36-344.8 3.21-37.29-4.5-52.5-8.79-60.43-16.93-15.21-15-23.14-62.15-23.14-139.29 0-73.5 7.5-121.51 21.43-138.01 10.71-12.84 41.57-18.2 138-24.63 31.93-2.14 195.86.86 226.72 3.86z"/>
        <path
            d="M482.71 289.76c-3 2.79-3.43 10.71-3.43 53.14 0 35.79.64 50.36 2.57 52.29 3.86 3.86 15.64 3 19.5-1.29 3.21-3.43 3.64-10.29 3.64-52.5 0-47.57 0-48.43-4.72-51.65-6.21-4.27-13.28-4.27-17.56.01zM303.56 561.7v13.93h32.14v167.16h32.14V575.63h32.14v-27.86h-96.44v13.93zm214.29 83.58v97.5h13.93c13.71 0 13.93 0 13.93-6 0-3.21.86-4.71 1.71-3.43 3.21 5.14 16.93 11.57 24.43 11.57 10.71 0 17.36-3.43 22.29-11.36 3.64-6.22 4.07-11.36 4.07-60.43 0-47.57-.43-54.43-3.86-61.5-7.72-15.21-26.36-18.43-41.36-7.07l-7.28 5.57v-62.36h-27.86v97.51zm47.36-22.72c5.14 4.07 5.14 4.5 5.14 49.08 0 47.79-.86 51.86-10.5 51.86-2.57 0-6.86-1.5-9.43-3.43-4.71-3.21-4.71-4.07-4.71-49.07s0-45.86 4.71-49.08c6.22-4.5 8.79-4.29 14.79.64zm78.43-25.07c-11.14 3-24 15.64-27 26.36-3 11.14-3 83.15 0 94.29 5.14 18.21 19.07 28.71 38.36 28.93 27 0 42.86-15.86 42.86-43.5v-7.93h-13.93c-13.29 0-13.93.21-13.93 5.14 0 16.93-6.43 24.86-18 21.86-6.86-1.71-9.86-11.57-9.86-33v-15.43h55.72v-23.14c-.21-31.07-4.93-43.29-19.5-50.79-7.93-4.08-25.07-5.58-34.72-2.79zm22.29 26.57c1.5 1.93 3.21 9 3.64 16.07l.86 12.64h-28.72l.86-12.64c1.07-15 4.07-19.5 13.5-19.5 3.86 0 8.14 1.5 9.86 3.43zm-250.51 43.93l.64 68.79 5.14 4.07c9.22 7.5 24.22 4.93 37.07-6.43 8.36-7.29 10.29-6.86 10.29 2.36 0 6 .21 6 12.86 6h12.86V599.2h-25.72v108.44l-5.79 5.57c-7.29 6.64-13.5 8.79-17.79 6-2.79-1.71-3.21-11.36-3.86-61.07l-.64-58.93h-25.72l.66 68.78z"/>
    </symbol>

    <symbol id="social-zen" viewBox="0 0 454 454">
        <circle cx="227" cy="227" r="227"/>
        <path fill="#CDCDCD" d="M309.797 185.408L178.94 299.17l-33.602-38.651 130.859-113.762z"/>
        <path fill="#FFF" d="M146.28 78L310 134.336v51.214l-163.72-56.335zM145 260.45l163.721 56.336V368L145 311.665z"/>
    </symbol>

    <symbol id="social-ok" viewBox="0 0 97.8 97.8">
        <path
            d="M48.9 40.5c4.7 0 8.4-3.8 8.4-8.4 0-4.7-3.7-8.4-8.4-8.4s-8.5 3.8-8.4 8.5c0 4.6 3.7 8.3 8.4 8.3z"/>
        <path
            d="M48.9 0C21.9 0 0 21.9 0 48.9s21.9 48.9 48.9 48.9 48.9-21.9 48.9-48.9S75.9 0 48.9 0zm0 14.9c9.5 0 17.2 7.8 17.1 17.4 0 9.4-7.8 17-17.3 17-9.4 0-17.1-7.8-17.1-17.3.1-9.5 7.8-17.2 17.3-17.1zm19.3 41.2c-2.1 2.2-4.6 3.7-7.5 4.8-2.7 1-5.6 1.6-8.5 1.9.4.5.6.7.9 1l11.8 11.8c1.3 1.3 1.6 3 .9 4.6-.8 1.7-2.6 2.8-4.4 2.7-1.1-.1-2-.6-2.8-1.4-3-3-6-5.9-8.9-8.9-.8-.9-1.2-.7-2 .1-3 3.1-6 6.1-9 9.1-1.4 1.3-3 1.6-4.6.8-1.7-.8-2.8-2.5-2.7-4.3.1-1.2.6-2.1 1.4-2.9l11.6-11.6.9-.9c-5.3-.6-10-1.8-14.1-5l-1.5-1.2c-1.8-1.7-2-3.7-.6-5.7 1.2-1.7 3.2-2.2 5.3-1.2.4.2.8.4 1.2.7 7.6 5.2 18 5.4 25.6.2.8-.6 1.6-1 2.5-1.3 1.8-.5 3.5.2 4.5 1.8 1.4 1.7 1.4 3.4 0 4.9z"/>
    </symbol>

    <symbol id="social-embed-fb" viewBox="0 0 430.113 430.114">
        <path
            d="M158.081 83.3v59.218h-43.385v72.412h43.385v215.183h89.122V214.936h59.805s5.601-34.721 8.316-72.685H247.54V92.74c0-7.4 9.717-17.354 19.321-17.354h48.557V.001h-66.021C155.878-.004 158.081 72.48 158.081 83.3z"/>
    </symbol>

    <symbol id="social-embed-in" viewBox="0 0 430.117 430.117">
        <path
            d="M430.117 261.543V420.56h-92.188V272.193c0-37.271-13.334-62.707-46.703-62.707-25.473 0-40.632 17.142-47.301 33.724-2.432 5.928-3.058 14.179-3.058 22.477V420.56h-92.219s1.242-251.285 0-277.32h92.21v39.309c-.187.294-.43.611-.606.896h.606v-.896c12.251-18.869 34.13-45.824 83.102-45.824 60.673-.001 106.157 39.636 106.157 124.818zM52.183 9.558C20.635 9.558 0 30.251 0 57.463c0 26.619 20.038 47.94 50.959 47.94h.616c32.159 0 52.159-21.317 52.159-47.94-.606-27.212-20-47.905-51.551-47.905zM5.477 420.56h92.184V143.24H5.477v277.32z"/>
    </symbol>

    <symbol id="direct-tg" viewBox="0 0 60 60">
        <g fill="none" fill-rule="evenodd">
            <circle cx="30" cy="30" r="30" fill="#37AEE2"/>
            <path fill="#C8DAEA" d="M24.5 43.75c-.972 0-.807-.367-1.142-1.292L20.5 33.05 42.5 20"/>
            <path fill="#A9C9DD" d="M24.5 43.75c.75 0 1.081-.343 1.5-.75l4-3.89-4.99-3.008"/>
            <path fill="#FFF"
                  d="M25.01 36.102l12.09 8.933c1.38.761 2.375.367 2.719-1.281l4.921-23.19c.504-2.02-.77-2.937-2.09-2.338L13.753 29.37c-1.973.791-1.961 1.891-.36 2.382l7.416 2.314 17.168-10.83c.81-.492 1.555-.228.944.314"/>
        </g>
    </symbol>

    <symbol id="direct-fb" viewBox="0 0 128 128">
        <g clip-rule="evenodd">
            <path fill="none" d="M0 0h128v128H0z"/>
            <path fill="#007FFF" fill-rule="evenodd"
                  d="M70.36 79.802L54.062 62.42 22.261 79.802l34.981-37.136 16.696 17.383 31.404-17.383L70.36 79.802zM64 0C28.654 0 0 26.531 0 59.259c0 18.649 9.307 35.283 23.851 46.146V128l21.791-11.96A68.79 68.79 0 0 0 64 118.518c35.346 0 64-26.531 64-59.259S99.346 0 64 0z"/>
        </g>
    </symbol>

    <symbol id="direct-wechat" viewBox="0 0 100 100">
        <circle cx="50" cy="50.001" r="45" fill="#20C300"/>
        <g fill="#FFF" fill-rule="evenodd" clip-rule="evenodd">
            <path
                d="M60.24 42.747c-1.75.195-3.464.252-5.117.598-3.84.809-6.998 2.762-9.207 6.066-1.916 2.865-2.308 5.996-1.447 9.307.047.18.102.361.188.67-1.036-.062-2.018-.053-2.975-.195-1.214-.182-2.407-.498-3.615-.727a1.204 1.204 0 0 0-.732.1c-1.48.766-2.945 1.561-4.416 2.346-.198.105-.402.201-.716.355.076-.287.114-.477.176-.66.407-1.223.801-2.449 1.239-3.658.135-.377.062-.557-.26-.785-2.601-1.85-4.625-4.182-5.541-7.285-1.558-5.277.025-9.713 3.992-13.301 3.835-3.467 8.48-4.725 13.58-4.357 3.807.273 7.247 1.561 10.189 4.027 2.251 1.887 3.831 4.23 4.575 7.102.033.127.064.256.085.387.009.047-.021.102.002.01zm-8.369-2.396c.04-1.252-.981-2.336-2.243-2.387-1.325-.049-2.349.922-2.387 2.27-.036 1.27.932 2.344 2.15 2.391 1.318.048 2.44-.981 2.48-2.274zm-11.424-.055c.012-1.225-1.074-2.318-2.319-2.336-1.306-.018-2.315 1.004-2.326 2.355-.01 1.246 1.03 2.307 2.26 2.305 1.314-.004 2.373-1.035 2.385-2.324z"/>
            <path
                d="M68.49 68.843c-.428-.23-.854-.465-1.283-.691-.919-.484-1.803-1.078-2.774-1.42-1.021-.359-2.007.305-3.022.445-4.582.625-8.771-.262-12.376-3.234-5.519-4.551-5.513-12.15-.006-16.717 3.174-2.633 6.887-3.648 10.963-3.379 3.246.215 6.188 1.277 8.686 3.398 5.461 4.637 5.461 11.998.021 16.656a1.25 1.25 0 0 1-.088.072c-.396.344-1.014.627-1.127 1.047-.116.428.262.99.422 1.494.235.748.472 1.496.707 2.246a4.373 4.373 0 0 0-.123.083zM56.48 51.812c0-.977-.923-1.895-1.905-1.895-1.029 0-1.844.852-1.836 1.918a1.836 1.836 0 0 0 1.814 1.816c1.056.008 1.927-.824 1.927-1.839zm9.174.015c-.004-1.004-.89-1.904-1.873-1.904-.941 0-1.931.922-1.941 1.809-.011 1 .934 1.934 1.941 1.918 1.028-.016 1.875-.84 1.873-1.823z"/>
        </g>
    </symbol>

</svg>


