<svg xmlns="http://www.w3.org/2000/svg" style="display:none; position:absolute; width:0; height:0;">

    <symbol id="symbol-logo" viewBox="0 0 155.81 34">
        <path fill="#323f4c"
              d="M42.13 8.41a8.25 8.25 0 0 0-6.2 2.26q-2.19 2.26-2.19 6.52v5.9a9.18 9.18 0 0 0 2.14 6.2q2.15 2.49 6.34 2.49t6.27-2.47a9.32 9.32 0 0 0 2.07-6.22v-5.9a9 9 0 0 0-2.21-6.43 8.13 8.13 0 0 0-6.22-2.35zm5.19 15.13A5.28 5.28 0 0 1 46 27.37a4.94 4.94 0 0 1-3.74 1.41A4.88 4.88 0 0 1 37 23.54v-6.35q0-5.69 5.23-5.69t5.1 5.69zm38.81-4.03c-1.19-.47-2.38-.91-3.59-1.29a16 16 0 0 1-3.24-1.44 2.58 2.58 0 0 1-1.45-2.32A2.69 2.69 0 0 1 79 12.24a5.8 5.8 0 0 1 3.5-.87 6 6 0 0 1 3.79 1.12l1-2.82-.54-.32A8.22 8.22 0 0 0 85 8.7a10.65 10.65 0 0 0-2.71-.33q-4.09 0-5.93 2a6 6 0 0 0-1.82 4.2 5 5 0 0 0 1.66 3.83 8.48 8.48 0 0 0 3.14 2c1.19.42 2.37.81 3.54 1.18a9.62 9.62 0 0 1 3 1.53 3.12 3.12 0 0 1 1.21 2.59 2.77 2.77 0 0 1-1.42 2.51 6.87 6.87 0 0 1-6.78-.05 3.3 3.3 0 0 1-1.67-2.57l-3.22.05a6 6 0 0 0 2.3 4.53A9.3 9.3 0 0 0 82.43 32a8.48 8.48 0 0 0 5.93-1.86 5.71 5.71 0 0 0 2-4.36 6.18 6.18 0 0 0-1.24-4 7.48 7.48 0 0 0-2.99-2.27zM102.21 8.5a8.73 8.73 0 0 0-6 2 7.12 7.12 0 0 0-2.28 5.64v9.17q0 6.54 7.85 6.54a13.81 13.81 0 0 0 7.22-2.09l-1.21-2.64a13 13 0 0 1-6.12 1.88c-3 0-4.51-1.27-4.51-3.81v-2.36l13-.68V16a7.23 7.23 0 0 0-2.1-5.52 8.11 8.11 0 0 0-5.85-1.98zm4.65 10.79l-9.7.49V16.2a4.43 4.43 0 0 1 1.38-3.53 4.87 4.87 0 0 1 3.36-1.21 6 6 0 0 1 3.47 1 3.8 3.8 0 0 1 1.49 3.38zM21.11 8.55a14.81 14.81 0 0 0-7.26 2.15 6.9 6.9 0 0 0-5.12-2.11A11.33 11.33 0 0 0 3.11 10V8.88H0v22.45h3.25V12.89a9.59 9.59 0 0 1 4.87-1.34 4.49 4.49 0 0 1 3.79 1.65 5.29 5.29 0 0 1 1 3.36v14.77h3.25V15.71a6.56 6.56 0 0 0-.59-2.82l1.4-.67a8.57 8.57 0 0 1 2.34-.63h1.47a6 6 0 0 1 1.6.27c1.68.56 2.53 2.13 2.53 4.69v14.78h3.24V15.84a7.42 7.42 0 0 0-1.89-5.23 6.62 6.62 0 0 0-5.15-2.06zm45.27 10.96c-1.19-.51-2.38-.91-3.59-1.29a16.38 16.38 0 0 1-3.25-1.44 2.59 2.59 0 0 1-1.44-2.32 2.66 2.66 0 0 1 1.15-2.22 5.78 5.78 0 0 1 3.5-.87 6 6 0 0 1 3.78 1.12l1-2.82-.53-.32a8.22 8.22 0 0 0-1.8-.65 10.7 10.7 0 0 0-2.71-.33c-2.74 0-4.71.65-5.93 2a6 6 0 0 0-1.83 4.2 5.05 5.05 0 0 0 1.67 3.83 8.4 8.4 0 0 0 3.14 2c1.18.42 2.36.81 3.54 1.18a9.45 9.45 0 0 1 3 1.53 3.1 3.1 0 0 1 1.22 2.59 2.77 2.77 0 0 1-1.42 2.51 6.89 6.89 0 0 1-6.79-.05 3.33 3.33 0 0 1-1.67-2.57l-3.15.13a5.94 5.94 0 0 0 2.3 4.53A9.3 9.3 0 0 0 62.68 32a8.48 8.48 0 0 0 5.93-1.86 5.75 5.75 0 0 0 2-4.36 6.18 6.18 0 0 0-1.24-4 7.55 7.55 0 0 0-2.99-2.27zM127 9.4l-.17-.06a12.32 12.32 0 0 0-4.57-.79 9.51 9.51 0 0 0-4.82 1.21V0h-3.25v31.33a52.35 52.35 0 0 0 7.17.54 12.93 12.93 0 0 0 6-1.35 6.18 6.18 0 0 0 2-1.52 6.88 6.88 0 0 0 1.55-4.7v-8.46q-.1-4.69-3.91-6.44zm-1 18.26a6.55 6.55 0 0 1-3.88 1.16 8.35 8.35 0 0 1-1.29.05 27.08 27.08 0 0 1-3.4-.32V12.89a9.33 9.33 0 0 1 2.88-1.07l2.26-.23a5.07 5.07 0 0 1 3.87 1.41 4.1 4.1 0 0 1 .37.48 5 5 0 0 1 .8 2.88v8a4 4 0 0 1-1.61 3.3zM149.76 31a2.5 2.5 0 0 0-1.95-1.95V29h-.5a2.5 2.5 0 0 0-2.45 2 2.73 2.73 0 0 0-.05.5 2.5 2.5 0 0 0 2.5 2.5 2.73 2.73 0 0 0 .5 0 2.5 2.5 0 0 0 2-2.45 2.73 2.73 0 0 0-.05-.55zm-7 0a2.5 2.5 0 0 0-2.45-2h-.5v.05a2.5 2.5 0 0 0-1.95 1.95 2.73 2.73 0 0 0-.05.5 2.5 2.5 0 0 0 2 2.45 2.73 2.73 0 0 0 .5 0 2.5 2.5 0 0 0 2.5-2.5 2.73 2.73 0 0 0-.05-.45zm6.85-9l-1.38-.62-.07.09a4.45 4.45 0 0 1-.62.53 5.28 5.28 0 0 1-3.16.92 5.16 5.16 0 0 1-3.85-1.45 5.31 5.31 0 0 1-1.44-3.93v-.3l-3.28-1.49v1.33a9.46 9.46 0 0 0 2.19 6.37 5.49 5.49 0 0 0 .53.55 6.38 6.38 0 0 0 1.3.95 9.17 9.17 0 0 0 4.55 1.05 10.25 10.25 0 0 0 3.43-.54 6.61 6.61 0 0 0 2.41-1.46c.17-.17.34-.34.5-.53a7.4 7.4 0 0 0 .53-.72z"/>
        <path fill="#f28d1b"
              d="M152.51 8.18a4.7 4.7 0 0 0-1.2-.18 4.41 4.41 0 0 0-2.08.54 4.49 4.49 0 0 0 2.08 8.46 4.39 4.39 0 0 0 1.5-.28 4.47 4.47 0 0 0-.3-8.54z"/>
    </symbol>

</svg>


